# xmcd
# 
# Track frame offsets:
#     150
#     58641
#     96407
#     140557
# 
# Disc length: 2397
# 
# Revision: 1
# Processed by: cddbd v1.5.2PL0 Copyright (c) Steve Scherf et al.
# Submitted via: fre:ac v1.0.17
# 
DISCID=36095b04
DTITLE=Jaco Pastorius - The Green Light
DYEAR=1973
DGENRE=Contemporary Jazz
TTITLE0=Ballye de Nina
TTITLE1=Lonely Dreams
TTITLE2=Las Olas
TTITLE3=Call it Sunshine, I'm a Rainbow, Dance with Her Father
EXTD=King/Holiday Park KKJ-012
EXTT0=
EXTT1=
EXTT2=
EXTT3=
PLAYORDER=
